<?xml version="1.0" encoding="iso-8859-1"?>
<!-- Uploaded to: SVG Repo, www.svgrepo.com, Generator: SVG Repo Mixer Tools -->
<!DOCTYPE svg PUBLIC "-//W3C//DTD SVG 1.1//EN" "http://www.w3.org/Graphics/SVG/1.1/DTD/svg11.dtd">
<svg fill="#f9b208" version="1.1" id="Capa_1" xmlns="http://www.w3.org/2000/svg" xmlns:xlink="http://www.w3.org/1999/xlink" 
	 width="800px" height="800px" viewBox="0 0 198.42 198.42"
	 xml:space="preserve">
<g>
	<path d="M193.352,150.435c-0.552-2.183-3.012-3.585-5.172-2.938c-20.248,6.076-29.762-22.15-5.74-24.771
		c0.942-0.104,1.655-0.532,2.165-1.104c2.012,1.724,4.542-0.298,4.83-2.361l0.004,0.001c-0.001-0.009-0.001-0.02-0.003-0.028
		c0.051-0.393,0.022-0.783-0.109-1.149c-0.356-3.322-0.624-6.602-0.626-9.967c-0.001-2.353-1.822-3.729-3.975-3.975
		c-3.399-0.389-12.521-1.275-11.304-6.579c0.854-3.723,4.317-5.864,7.022-8.404c1.208,1.403,3.883,1.27,4.505-0.924
		c7.301-25.733-3.525-53.383,0.652-79.831c0.395-2.501-2.194-5.577-4.818-3.704c-25.208,17.99-59.85,19.319-88.808,10.716
		c-2.273-0.675-4.694,1.185-4.656,3.546c0.37,22.527-22.449,24.634-28.2,3.907c-0.115-0.414-0.301-0.731-0.518-0.996
		c0.396-1.184-0.253-2.597-1.895-2.721c-13.755-1.042-27.436-0.821-41.148-2.637c-1.153-0.153-2.098,0.178-2.838,0.77
		c-1.417-1.734-4.691-0.045-4.049,2.316c15.332,56.411,0.808,109.118-8.591,165.125c-0.557,3.321,1.843,5.725,5.165,5.166
		c11.804-1.987,23.531-2.228,35.46-2.303c1.74-0.012,3.482-1.215,3.888-2.96c2.224-9.553,12.973-10.71,16.695-2.027
		c0.097,0.227,0.24,0.388,0.38,0.553c-0.16,0.966,0.254,2.058,1.367,2.326c43.084,10.426,88.597,12.055,132.042,2.462
		c1.905-0.421,3.416-2.453,3.339-4.386C197.974,172.282,196.115,161.372,193.352,150.435z M181.198,181.446
		c-14.053,2.567-28.443,3.237-42.693,3.583c-23.989,0.582-48.476-0.998-72.388-3.245c0.035-0.169,0.092-0.331,0.086-0.514
		c-0.221-7.232-6.61-21.487-16.618-17.649c-4.44,1.703-7.638,4.282-9.542,8.88c-4.061,9.808-19.244,8.42-30.834,8.795
		c9.287-49.857,25.152-106.012,7.255-155.147c12.59,2.009,25.536,2.231,37.68-1.806c-2.665,28.729,35.839,25.161,40.125-0.642
		c27.383,7.356,58.767,5.833,83.274-8.984c-3.639,21.936,1.246,45.572,2.158,67.781c-0.102,0.011-0.202-0.002-0.304,0.02
		c-6.69,1.466-13.406,9.871-13.493,16.741c-0.098,7.726,8.46,10.899,15.095,12.229c0.175,1.658,0.505,3.309,0.966,4.908
		c-32.88,0.989-23.434,42.742,4.175,39.942C188.945,166.805,193.723,179.158,181.198,181.446z"/>
	<path d="M132.816,53.605c0.248-0.455,0.191-1.067-0.445-1.166c-25.96-4.029-48.6,43.725-17.937,49.781
		c15.14,2.99,27.336-9.531,30.436-23.332C147.052,69.177,141.958,56.796,132.816,53.605z M107.735,74.707
		c2.336-7.85,7.449-14.26,14.305-17.765c0.042,0.023,0.045,0.067,0.093,0.087c0.379,0.167,0.758,0.314,1.138,0.464
		c-7.29,4.775-13.181,11.818-13.839,20.813c-0.468,6.402,4.328,13.712,10.448,16.921c-0.936,0.12-1.867,0.248-2.845,0.232
		C105.471,95.27,105.269,82.998,107.735,74.707z M137.785,76.934c-1.017,6.261-4.469,11.708-9.361,15.054
		c-5.071-4.354-12.001-5.307-12.06-13.682c-0.052-7.676,6.593-14.407,12.473-18.32c0.141-0.094,0.214-0.215,0.327-0.321
		c1.902,0.771,3.726,1.714,5.368,3.224C138.272,66.324,138.54,72.287,137.785,76.934z"/>
	<path d="M131.26,131.63c-1.427,0.195-2.927,0.585-4.316,1.194c1.213-0.985,2.498-1.873,3.788-2.643
		c1.661-0.992,0.573-3.726-1.329-3.152c-7.73,2.331-13.834,7.645-15.157,15.895c-1.048,6.532,1.362,13.342,6.313,17.736
		c11.625,10.32,26.923-3.92,28.437-16.292C150.226,134.317,139.451,130.502,131.26,131.63z M126.699,157.316
		c-4.351-2.106-6.394-7.391-6.545-11.945c-0.078-2.351,0.546-4.487,1.575-6.431c-0.535,3.603,1.918,7.02,4.479,9.496
		c2.788,2.695,6.261,5.033,9.819,6.775C133.437,157.583,130.247,159.034,126.699,157.316z M139.792,150.74
		c-0.093,0.138-0.202,0.277-0.299,0.415c-4.016-2.414-17.569-9.85-10.457-13.505c3.692-1.896,11.854-1.369,13.657,3.121
		C144.074,144.211,141.642,148.011,139.792,150.74z"/>
	<path d="M71.527,115.907c-0.827-8.597-8.383-12.93-16.016-14.716c-0.047-0.738-1.158-1.242-1.83-0.674
		c-0.095,0.08-0.174,0.162-0.267,0.242c-0.16-0.028-0.323-0.073-0.483-0.1c-1.433-0.231-3.442,0.354-3.68,2.09
		c-0.118,0.86-0.119,1.664-0.165,2.49c-6.447,8.188-5.932,17.3-0.387,27.636c3.509,6.541,10.258,5.271,15.251,1.18
		C69.068,129.863,72.157,122.456,71.527,115.907z M65.182,114.95c0.651,1.975,0.558,4.032,0.057,6.022
		c-2.06-1.403-4.273-2.57-6.366-3.947c-3.539-2.329-4.295-6.059-4.112-9.891C59.252,108.235,63.636,110.266,65.182,114.95z
		 M53.486,130.078c-3.589-6.024-4.712-11.545-3.604-16.995c1.753,6.054,6.244,10.448,13.44,12.542
		c-0.336,0.593-0.686,1.172-1.053,1.716C60.381,130.135,55.951,134.217,53.486,130.078z"/>
</g>
</svg>