<?xml version="1.0" standalone="no"?>
<!DOCTYPE svg>
<svg version="1.0" xmlns="http://www.w3.org/2000/svg"
 width="512.000000pt" height="512.000000pt" viewBox="0 0 512.000000 512.000000"
 preserveAspectRatio="xMidYMid meet">

<g transform="translate(0.000000,512.000000) scale(0.100000,-0.100000)"
fill="#f9b208" stroke="none">
<path d="M2250 4579 c-957 -54 -1807 -392 -2109 -838 -98 -144 -136 -261 -135
-416 0 -102 11 -161 157 -860 86 -412 167 -777 180 -810 120 -318 388 -590
777 -793 922 -481 2261 -429 3084 119 292 195 491 435 583 704 13 39 94 410
179 825 150 727 156 758 151 845 -13 225 -134 437 -351 614 -531 434 -1494
668 -2516 610z m628 -129 c81 -6 203 -18 272 -26 877 -104 1574 -437 1775
-848 33 -67 73 -201 63 -211 -2 -3 -19 1 -37 8 -29 10 -41 28 -92 129 -32 64
-67 122 -78 128 -11 5 -82 10 -158 10 l-138 1 -70 91 c-97 126 -101 128 -176
92 l-60 -28 -57 63 -57 63 -170 9 c-93 4 -186 8 -206 9 -29 0 -58 17 -160 94
-69 51 -135 97 -148 101 -32 10 -68 -18 -82 -65 -7 -22 -14 -40 -17 -40 -3 0
-27 14 -54 30 -28 17 -62 30 -81 30 -17 0 -98 -18 -179 -39 l-147 -39 -25 53
c-13 29 -34 58 -45 65 -15 7 -58 9 -137 4 l-115 -7 -74 -59 c-42 -33 -84 -58
-97 -58 -13 0 -130 18 -262 40 -156 25 -246 36 -260 30 -11 -5 -64 -45 -118
-89 -53 -45 -99 -81 -102 -81 -4 0 -48 31 -99 69 -161 118 -159 118 -257 -13
-70 -96 -75 -100 -146 -111 -34 -5 -49 -1 -93 24 -85 50 -87 49 -287 -117
l-178 -148 -63 15 c-82 19 -80 20 -218 -137 -59 -68 -109 -121 -112 -118 -10
9 29 134 62 203 204 416 928 756 1820 853 274 30 611 37 863 20z m-172 -499
c39 -89 43 -90 255 -35 l179 46 80 -47 c110 -65 146 -62 170 11 6 19 14 34 17
34 13 0 143 -103 143 -113 0 -7 -27 -85 -58 -175 -63 -176 -51 -160 -164 -225
l-46 -27 -53 73 c-75 103 -99 127 -128 127 -33 0 -61 -27 -61 -60 0 -36 165
-265 202 -280 30 -13 23 -16 185 77 l112 64 29 82 c16 45 47 133 68 196 l39
113 95 -6 c52 -3 127 -6 165 -6 l70 0 59 -70 c33 -39 71 -73 84 -77 16 -4 43
3 78 20 l52 26 62 -79 c33 -44 71 -86 83 -95 17 -12 51 -15 154 -15 l132 0 58
-112 58 -113 75 -29 c41 -16 77 -31 78 -32 16 -12 -80 -234 -102 -234 -4 0
-80 23 -168 50 -88 28 -168 50 -179 50 -26 0 -59 -35 -59 -62 0 -39 32 -58
179 -104 l146 -46 -61 -57 c-33 -31 -74 -67 -92 -80 l-32 -22 -6 41 c-13 81
-70 114 -115 69 -18 -18 -20 -29 -15 -65 3 -24 9 -63 12 -87 l6 -43 -118 -61
c-125 -65 -254 -120 -366 -159 l-67 -23 5 28 c3 14 6 58 7 96 2 65 0 70 -24
84 -25 14 -39 11 -215 -40 -232 -66 -263 -89 -213 -153 11 -14 30 -26 42 -26
12 0 74 16 137 35 63 19 121 35 128 35 10 0 12 -11 6 -47 -3 -27 -8 -49 -9
-51 -4 -5 -145 -42 -239 -62 l-97 -21 -52 40 c-29 22 -69 55 -90 73 l-37 33
191 120 c205 128 224 147 198 193 -21 38 -57 38 -287 4 -207 -31 -232 -41
-232 -92 0 -47 30 -64 102 -57 51 5 60 4 45 -6 -10 -7 -51 -33 -92 -59 -88
-56 -113 -88 -97 -123 6 -13 48 -52 93 -87 81 -63 81 -63 53 -71 -27 -7 -266
-35 -271 -32 -1 1 -9 32 -17 70 -17 80 -43 110 -85 100 -41 -10 -53 -33 -47
-90 3 -27 9 -60 12 -72 l6 -23 -196 0 -197 0 45 58 c60 76 61 119 5 141 -37
14 -57 -1 -140 -104 -40 -49 -73 -91 -73 -92 -4 -8 -526 49 -563 62 -8 3 -8
16 3 51 22 73 18 98 -30 176 -25 40 -43 75 -41 79 2 3 54 36 115 74 134 83
152 107 113 153 -36 41 -52 37 -199 -54 -161 -99 -184 -119 -184 -152 0 -13
25 -66 56 -117 55 -93 55 -93 43 -137 -7 -23 -14 -44 -15 -46 -3 -5 -178 37
-294 70 -291 83 -543 194 -741 327 -182 122 -300 245 -372 386 -61 120 -67
101 89 279 124 142 140 157 163 152 14 -3 46 -9 71 -12 l46 -6 174 146 c96 80
177 146 181 146 7 0 93 -64 156 -116 41 -33 81 -34 106 -3 17 22 18 33 3 70
-5 12 0 18 18 23 16 4 48 36 86 86 34 44 64 80 67 80 3 0 47 -30 97 -67 50
-36 103 -71 117 -77 32 -12 37 -9 173 103 54 44 106 81 115 81 18 0 344 -51
349 -55 1 -1 -5 -16 -14 -32 -31 -53 5 -113 60 -99 12 3 82 57 156 120 139
119 140 119 238 124 31 2 34 -1 58 -57z m-2291 -1322 c478 -358 1273 -569
2145 -569 960 0 1832 259 2268 674 34 32 62 57 62 55 0 -2 -47 -235 -105 -516
-113 -552 -130 -612 -214 -748 -324 -521 -1124 -864 -2017 -865 -989 -1 -1875
442 -2092 1045 -17 47 -232 1049 -232 1081 0 4 28 -20 63 -52 34 -33 89 -80
122 -105z"/>
<path d="M3012 3826 c-129 -18 -167 -26 -181 -42 -25 -25 -123 -329 -119 -368
2 -21 12 -35 31 -46 24 -13 30 -13 54 0 22 13 34 39 74 159 27 79 51 146 54
149 6 7 164 30 206 31 22 1 34 -12 77 -79 56 -88 84 -104 127 -76 24 16 30 32
25 66 -2 23 -121 199 -144 216 -11 8 -25 14 -31 13 -5 -1 -83 -11 -173 -23z"/>
<path d="M1864 3825 c-14 -9 -41 -70 -80 -179 -46 -130 -63 -166 -79 -170 -11
-3 -58 -6 -105 -6 -103 0 -130 -14 -130 -65 0 -26 6 -39 25 -51 22 -14 44 -15
164 -9 111 6 143 11 154 24 19 20 147 379 147 409 0 26 -33 62 -58 62 -10 0
-27 -7 -38 -15z"/>
<path d="M2335 3790 c-12 -13 -24 -59 -36 -142 -11 -67 -20 -122 -21 -123 -5
-4 -208 -15 -208 -12 0 2 5 18 11 35 8 23 18 32 42 37 72 14 95 26 107 55 14
34 1 66 -34 80 -34 13 -182 -21 -201 -46 -7 -10 -31 -69 -51 -130 -38 -110
-38 -112 -20 -139 l18 -28 147 7 c216 11 281 19 296 39 11 16 40 176 52 295 5
42 2 56 -12 72 -23 26 -67 26 -90 0z"/>
<path d="M2566 3781 c-12 -14 -23 -69 -41 -211 -13 -105 -25 -194 -28 -196 -2
-2 -37 -15 -77 -29 -86 -29 -110 -48 -110 -86 0 -35 24 -59 58 -59 39 0 214
59 235 80 14 13 23 58 43 211 29 237 30 271 6 292 -25 22 -65 21 -86 -2z"/>
<path d="M1378 3758 c-32 -32 -108 -180 -108 -210 0 -50 69 -77 105 -42 9 9
27 39 41 66 14 27 29 48 34 46 4 -2 41 -21 82 -42 83 -44 120 -44 140 0 19 42
-6 70 -118 135 -127 73 -146 78 -176 47z"/>
<path d="M3882 3630 c-25 -23 -28 -57 -9 -84 8 -11 76 -35 180 -66 93 -26 170
-50 173 -53 3 -3 -2 -33 -11 -67 -22 -85 -17 -132 15 -146 20 -10 449 -45 538
-44 29 0 62 34 62 64 0 14 -11 33 -25 44 -21 17 -54 21 -234 32 -116 8 -215
16 -220 20 -7 4 -5 25 4 60 19 69 19 114 1 129 -14 12 -410 131 -437 131 -8 0
-25 -9 -37 -20z"/>
<path d="M915 3540 c-64 -55 -119 -100 -122 -100 -3 0 -13 10 -22 21 -27 34
-65 26 -192 -37 -129 -63 -149 -85 -127 -132 20 -41 64 -41 155 3 42 19 76 34
77 33 18 -46 35 -63 67 -66 31 -3 46 7 159 103 184 157 210 183 210 211 0 31
-33 64 -63 64 -16 0 -65 -35 -142 -100z"/>
<path d="M3686 3588 c-8 -13 -49 -93 -92 -180 l-78 -156 -155 -42 c-189 -51
-203 -58 -199 -108 2 -27 10 -40 29 -51 24 -13 40 -10 198 33 95 26 184 51
197 56 17 7 41 43 86 135 35 69 66 125 70 125 3 0 10 -9 13 -20 12 -39 56 -80
84 -80 33 0 61 27 61 60 0 22 -72 165 -112 223 -25 36 -80 38 -102 5z"/>
<path d="M2942 3524 c-29 -20 -29 -46 9 -270 l31 -184 -62 -131 c-69 -148 -74
-185 -27 -207 52 -25 71 -4 150 166 l71 154 -33 201 c-18 111 -37 217 -42 235
-16 50 -56 65 -97 36z"/>
<path d="M1183 3405 c-16 -11 -23 -26 -23 -48 0 -26 19 -55 92 -146 77 -95 89
-115 77 -125 -8 -6 -43 -33 -78 -60 -34 -26 -64 -46 -66 -44 -2 2 2 44 10 92
15 95 11 117 -26 137 -27 14 -66 4 -78 -20 -11 -20 -61 -325 -61 -370 0 -34
28 -61 62 -61 17 0 82 44 206 140 175 135 202 161 202 194 0 11 -188 256 -234
303 -20 21 -60 25 -83 8z"/>
<path d="M3822 3145 c-217 -176 -242 -199 -242 -225 0 -34 31 -70 59 -70 21 0
48 19 225 163 66 53 121 95 122 94 1 -1 -2 -24 -8 -50 -13 -65 6 -97 60 -97
58 0 310 65 332 85 26 23 26 59 0 85 -25 25 -35 25 -147 -2 -51 -12 -95 -19
-98 -16 -3 3 1 37 10 77 8 40 15 81 15 92 0 26 -35 59 -63 59 -14 0 -109 -70
-265 -195z"/>
<path d="M1505 3298 c-27 -15 -35 -28 -35 -59 0 -56 13 -59 287 -59 l251 0 25
-32 c57 -74 86 -98 115 -98 35 0 62 27 62 63 0 30 -120 174 -158 188 -35 14
-523 11 -547 -3z"/>
<path d="M2622 3206 c-131 -65 -215 -112 -222 -126 -20 -38 11 -90 55 -90 12
0 91 34 174 75 84 41 154 75 157 75 3 0 4 -12 2 -27 -3 -25 -17 -34 -153 -95
-294 -131 -304 -137 -311 -163 -7 -30 16 -71 46 -80 24 -8 490 194 525 227 18
16 20 34 23 144 4 139 -5 164 -58 164 -15 0 -122 -47 -238 -104z"/>
<path d="M891 3272 c-17 -13 -32 -56 -62 -176 -46 -181 -47 -213 -6 -236 24
-13 30 -13 55 0 24 14 31 31 69 175 48 185 50 208 23 235 -25 25 -51 25 -79 2z"/>
<path d="M485 3108 c-64 -50 -122 -102 -128 -115 -22 -50 34 -100 86 -76 12 6
48 31 79 57 31 25 61 46 66 46 6 0 13 -12 17 -27 9 -40 34 -63 65 -63 34 0 60
28 60 64 0 43 -41 167 -61 187 -34 34 -62 23 -184 -73z"/>
<path d="M1731 3070 c-85 -16 -165 -31 -178 -35 -29 -7 -48 -45 -39 -80 12
-47 37 -49 222 -17 l169 30 140 -74 c77 -41 150 -77 163 -80 36 -10 72 20 72
60 0 18 -6 38 -12 44 -37 29 -340 182 -360 181 -12 -1 -92 -14 -177 -29z"/>
<path d="M3268 2957 c-114 -51 -217 -100 -228 -110 -11 -9 -20 -28 -20 -42 0
-30 32 -65 59 -65 29 0 444 188 459 207 20 27 14 60 -14 82 -15 12 -32 21 -38
21 -6 0 -104 -42 -218 -93z"/>
<path d="M4318 2943 c-20 -24 -128 -323 -128 -356 0 -33 24 -57 58 -57 50 0
50 0 126 214 l57 160 -19 25 c-24 32 -72 39 -94 14z"/>
<path d="M3986 2886 c-141 -32 -182 -46 -196 -63 -22 -28 -15 -69 16 -89 21
-14 33 -13 138 10 63 14 117 26 120 26 3 0 -11 -34 -30 -76 -45 -100 -45 -127
4 -153 18 -9 28 -9 49 1 21 10 41 46 94 163 70 155 74 176 37 208 -26 22 -21
22 -232 -27z"/>
<path d="M1355 2849 c-108 -22 -144 -34 -157 -50 -24 -28 -23 -54 3 -80 18
-18 29 -21 73 -16 28 4 62 9 76 13 19 6 8 -11 -53 -79 -82 -93 -95 -128 -59
-160 39 -35 65 -23 155 76 224 244 232 257 203 302 -22 33 -58 32 -241 -6z"/>
<path d="M680 2830 c-26 -26 -26 -65 0 -87 37 -32 305 -173 328 -173 27 0 62
33 62 59 0 10 -8 28 -17 40 -23 27 -306 181 -333 181 -11 0 -29 -9 -40 -20z"/>
<path d="M2716 2798 c-13 -21 -56 -290 -56 -349 0 -31 28 -59 60 -59 23 0 291
148 358 197 37 28 43 70 14 96 -31 28 -66 19 -173 -43 -57 -33 -105 -57 -107
-55 -3 3 1 45 7 95 11 80 11 94 -3 115 -22 34 -79 35 -100 3z"/>
<path d="M2085 2725 c-22 -21 -25 -33 -25 -93 0 -76 16 -102 61 -102 48 0 69
35 69 115 0 46 -4 60 -25 80 -13 14 -31 25 -40 25 -9 0 -27 -11 -40 -25z"/>
<path d="M2406 2719 c-68 -10 -96 -30 -96 -70 0 -52 23 -62 125 -55 64 4 97
11 115 24 33 25 37 65 11 91 -23 23 -53 25 -155 10z"/>
<path d="M1892 2644 c-30 -21 -28 -42 18 -201 42 -144 58 -173 96 -173 29 0
391 143 416 164 38 33 11 106 -40 106 -12 0 -90 -27 -173 -60 -83 -34 -153
-59 -155 -57 -2 2 -17 48 -33 101 -16 54 -37 106 -47 117 -21 23 -52 24 -82 3z"/>
</g>
</svg>
