<?xml version="1.0" encoding="iso-8859-1"?>
<!DOCTYPE svg PUBLIC "-//W3C//DTD SVG 1.1//EN" "http://www.w3.org/Graphics/SVG/1.1/DTD/svg11.dtd">
<svg height="800px" width="800px" version="1.1" id="Capa_1" xmlns="http://www.w3.org/2000/svg" xmlns:xlink="http://www.w3.org/1999/xlink" 
	 viewBox="0 0 44.963 44.963" xml:space="preserve">
<g>
	<path style="fill:#f9b208;" d="M43.16,4.9c-0.266-0.413-0.834-0.653-1.211-0.968c-0.431-0.359-0.823-0.756-1.229-1.141
		c-0.043-0.041-0.095-0.057-0.146-0.058c0.002-0.158-0.124-0.323-0.305-0.251c-0.508,0.203-1.011,0.267-1.551,0.172
		c-0.098-0.017-0.167,0.042-0.192,0.115c-0.098-0.006-0.187,0.095-0.179,0.195c-1.8,1.782-2.918,4.078-3.165,6.612
		c-0.036,0.375-0.114,1.785,0.051,2.93c-1.172-2.655-0.769-5.314-0.587-8.129c0.006-0.092-0.068-0.144-0.146-0.151
		c-0.025-0.042-0.058-0.079-0.105-0.094c-0.399-0.126-0.849-0.073-1.272-0.099c0.012-0.019,0.032-0.025,0.039-0.05
		c0.178-0.657,0.521-1.17,1.132-1.493c0.171-0.091,0.134-0.311,0-0.409c-0.844-0.617-1.708-1.207-2.586-1.773
		c0.049-0.164-0.087-0.395-0.314-0.275c-0.419,0.221-0.927,0.246-1.399,0.227c-0.059-0.106-0.179-0.171-0.306-0.082
		c-1.271,0.895-2.015,2.507-2.18,4.043c-0.235-0.848-0.574-1.66-0.995-2.377c-0.024-0.04-0.063-0.054-0.103-0.057
		c-0.027-0.09-0.089-0.168-0.219-0.172c-0.932-0.029-1.88,0.054-2.811,0.108c-0.125,0.007-0.205,0.077-0.249,0.19
		c-0.043,0.11-0.042,0.175,0.001,0.284c0.001,0.002,0.003,0.003,0.004,0.005c-0.29,0.222-0.523,0.544-0.752,0.836
		c-0.062,0.006-0.122,0.018-0.184,0.023c-0.142,0.013-0.304,0.151-0.239,0.313c0.32,0.798,0.539,1.61,0.787,2.431
		c0.009,0.031,0.032,0.048,0.054,0.067c-0.483-0.008-0.965-0.032-1.449-0.082c-0.074-0.008-0.116,0.042-0.134,0.101
		c-0.019,0.008-0.039,0.012-0.058,0.027c-0.266,0.219-0.721,0.49-0.824,0.845C20.321,6.811,20.32,6.855,20.317,6.9
		c-0.11,0.021-0.192,0.138-0.196,0.242c-0.028,0.823,0.009,1.632,0.121,2.446c-0.316-0.21-0.619-0.436-0.907-0.69
		c-0.012-0.052-0.043-0.1-0.106-0.122c-0.016-0.005-0.034-0.006-0.051-0.011c0.162-0.655,0.143-1.333,0.354-1.989
		c0.232-0.721,0.591-1.415,1.016-2.041c0.034-0.05,0.021-0.098-0.005-0.139c-0.012-0.053-0.043-0.103-0.1-0.136
		c-0.831-0.489-1.826-0.818-2.727-1.152c-0.074-0.027-0.131,0.012-0.167,0.067c-0.561-0.006-1.139,0.076-1.693,0.141
		c-0.192,0.023-0.208,0.273-0.038,0.318c-0.038,0.007-0.071,0.025-0.095,0.058c-0.021,0.01-0.044,0.009-0.063,0.03
		C14.51,5.166,13.8,6.979,13.584,8.655c-0.189-0.089-0.384-0.167-0.578-0.248c0.422-2.2,0.84-4.255,1.538-6.406
		c0.045-0.139-0.164-0.225-0.234-0.099c-0.006,0.011-0.012,0.024-0.018,0.035c-0.003-0.001-0.002-0.004-0.005-0.005
		c-1.076-0.493-2.278-0.78-3.425-1.099c-0.048-0.091-0.157-0.147-0.286-0.084c-0.002,0.001-0.005,0.003-0.008,0.004
		c-0.084-0.022-0.139,0.022-0.164,0.081C9.982,1.041,9.426,1.329,9.275,1.738C9.273,1.744,9.278,1.747,9.278,1.752
		C9.21,1.757,9.146,1.784,9.113,1.865c-1.112,2.741-0.75,5.687,0.549,8.279c-0.005,0.059-0.017,0.119-0.022,0.178
		c-0.86-2.4-2.486-4.545-4.549-6.033C5.081,4.138,4.911,3.997,4.751,4.093C3.86,4.625,3.06,5.363,2.262,6.022
		c-0.048,0.04-0.05,0.091-0.038,0.141C2.207,6.181,2.187,6.196,2.179,6.22C1.998,6.726,1.967,7.78,2.34,8.205
		c0.014,0.016,0.04,0.016,0.062,0.021C2.38,8.273,2.348,8.314,2.327,8.363c-0.059,0.14,0.149,0.194,0.225,0.095
		c0.379-0.492,0.75-0.979,1.212-1.398C4.138,6.721,4.68,6.462,4.977,6.057c1.005,1.101,1.95,2.255,2.733,3.528
		c0.742,1.206,1.212,2.511,1.83,3.776c0.03,0.06,0.075,0.085,0.125,0.093c0.121,1.192,0.359,2.37,0.717,3.524
		c-1.035-1.401-2.284-2.623-3.674-3.667C6.526,11.143,4.71,9.217,2.795,8.398C2.603,8.316,2.43,8.589,2.627,8.687
		c1.866,0.931,2.813,2.369,3.5,4.182c-0.602-0.414-1.226-0.799-1.879-1.138c-0.051-0.12-0.216-0.182-0.343-0.08
		c-0.93,0.75-1.574,2.074-2.043,3.183c-0.012,0.017-0.028,0.028-0.036,0.051c-0.006,0.019-0.006,0.04-0.011,0.06
		c-0.011,0.027-0.024,0.055-0.035,0.081c-0.013,0.032-0.003,0.059,0.003,0.086c-0.078,0.705,0.444,1.529,0.91,1.977
		c0.125,0.12,0.349-0.032,0.259-0.186c0.007,0.003,0.014,0.01,0.021,0.012c0.035,0.015,0.07,0.031,0.106,0.046
		c0.093,0.048,0.183,0.003,0.22-0.089c0.007-0.018,0.014-0.035,0.021-0.053c0.032-0.08-0.019-0.143-0.087-0.168
		c-0.012-0.249,0.791-1.863,1.126-2.562c2.707,1.015,4.89,2.648,6.547,5.021c-0.726,0.038-1.454,0.162-2.145,0.365
		c-1.405-1.387-3.28-2.348-5.249-2.593c-0.278-0.035-0.329,0.416-0.065,0.483c1.86,0.475,3.484,1.177,5.042,2.295
		c-0.001,0.005-0.005,0.01-0.006,0.015c-0.164,0.004-0.331,0.137-0.277,0.345c2.046,7.996,4.236,16.057,6.969,23.847
		c0.018,0.051,0.053,0.079,0.09,0.102c-0.028,0.128,0.017,0.276,0.165,0.308c5.595,1.223,11.42,0.751,16.86-0.968
		c0.133-0.042,0.182-0.146,0.192-0.253c0.089,0.056,0.205,0.074,0.312-0.014c0.8-0.658,1.561-1.369,2.315-2.08
		c0.642-0.606,1.486-1.212,1.946-1.974c0.074-0.023,0.138-0.067,0.151-0.159c1.202-8.922,2.2-17.92,2.817-26.902
		c0.003-0.038-0.007-0.066-0.016-0.094c0.827-2.292,1.704-4.406,2.859-6.566c0.013-0.025,0.008-0.05,0.008-0.076
		c0.034,0.007,0.066,0.024,0.1,0.028C43.136,5.234,43.243,5.029,43.16,4.9z M9.577,12.043C8.743,9.608,6.975,7.308,5.106,5.684
		c-0.106-0.092-0.228-0.03-0.27,0.066C4.822,5.75,4.809,5.744,4.796,5.746C4.247,5.823,3.681,6.453,3.328,6.848
		c-0.28,0.313-0.517,0.654-0.727,1.014c0.01-0.183-0.019-0.365-0.029-0.573C2.556,6.934,2.604,6.576,2.542,6.226
		c0.805-0.533,1.66-1.054,2.385-1.694c1.903,1.797,3.307,3.797,4.369,6.197c0.06,0.136,0.208,0.135,0.318,0.069
		C9.59,11.214,9.569,11.63,9.577,12.043z M4.499,13.722c0.019-0.233-0.333-0.347-0.47-0.133c-0.331,0.516-0.562,1.109-0.788,1.678
		c-0.165,0.416-0.451,0.954-0.417,1.415c-0.159-0.25-0.302-0.511-0.395-0.794c-0.099-0.301-0.107-0.626-0.204-0.923
		c0.275-0.504,0.56-1,0.882-1.478c0.327-0.486,0.735-0.933,1.041-1.432c1.629,1.062,3.056,2.25,4.325,3.603
		C7.288,14.77,5.941,14.099,4.499,13.722z M35.934,8.048c0.494-1.836,1.437-3.377,2.746-4.741c0.793,0.674,1.646,1.344,2.562,1.818
		c0.005,0.003,0.01-0.001,0.015,0.002C39.25,6.943,38.379,9.75,38.398,12.4c-0.741,0.438-1.473,0.9-2.174,1.411
		c-0.007-0.001-0.009-0.007-0.016-0.007C35.086,13.774,35.764,8.678,35.934,8.048z M34.298,4.532
		c-0.555,2.773-0.714,5.833,0.654,8.39c0.089,0.167,0.277,0.11,0.349-0.018c0.118,0.552,0.31,0.991,0.617,1.132
		c-0.203,0.153-0.39,0.325-0.588,0.485c-1.835-2.787-2.441-5.733-2.129-9.008c0.298-0.049,0.307-0.491-0.017-0.498
		c-1.071-0.021-2.126-0.035-3.194-0.1c0.383-0.203,0.764-0.409,1.154-0.596c0.093-0.045,0.115-0.124,0.11-0.205
		c0.069,0.058,0.168,0.072,0.256,0.047C32.328,4.517,33.475,4.817,34.298,4.532z M31.562,17.129
		c-0.192,0.023-0.389,0.04-0.581,0.063c0.02-0.025,0.038-0.052,0.037-0.089c-0.015-0.669,0.158-1.215,0.457-1.766
		c0.112,0.194,0.232,0.383,0.351,0.573c-0.097,0.384-0.192,0.769-0.274,1.157C31.547,17.091,31.556,17.109,31.562,17.129z
		 M32.052,16.26c0.141,0.213,0.284,0.425,0.438,0.63c0.12,0.16,0.385,0.02,0.276-0.161c-2.146-3.599-3.117-7.256-2.904-11.433
		c0.97,0.196,2.01,0.295,3,0.24c-0.698,3.208,0.12,6.592,2.064,9.226c0.017,0.024,0.043,0.024,0.064,0.039
		c-0.716,0.601-1.406,1.229-2.02,1.92c-0.026,0.029-0.023,0.06-0.034,0.09c-0.13,0.016-0.243,0.106-0.27,0.26
		c-0.041-0.028-0.086-0.052-0.142-0.048c-0.253,0.017-0.495,0.052-0.741,0.081C31.879,16.825,31.965,16.542,32.052,16.26z
		 M31.364,0.458c0.786,0.634,1.597,1.238,2.418,1.827c-0.521,0.402-0.897,0.91-1.041,1.583c-0.011,0.05,0.007,0.087,0.022,0.125
		c-0.351-0.047-0.699-0.11-1.046-0.185c0.15-0.639,0.514-1.145,1.153-1.41c0.189-0.078,0.296-0.379,0.064-0.49
		c-0.939-0.453-1.855-0.944-2.773-1.435C30.564,0.503,30.956,0.475,31.364,0.458z M27.479,8.973c0.473-1.33,0.465-2.83,0.148-4.256
		c0.036-0.01,0.069-0.03,0.078-0.075c0.319-1.623,1.092-2.763,2.16-3.956c0.751,0.557,1.558,1.034,2.388,1.463
		c-0.558,0.373-0.924,0.933-1.034,1.617c-0.039,0.033-0.066,0.081-0.069,0.131c-0.071-0.053-0.163-0.072-0.258-0.011
		c-0.482,0.307-0.982,0.588-1.473,0.879c-0.118,0.07-0.113,0.193-0.052,0.278c-0.006,0.018-0.02,0.031-0.022,0.052
		c-0.379,3.408,0.29,6.854,1.915,9.842c-0.488,0.616-0.672,1.441-0.565,2.211c0.005,0.035,0.026,0.054,0.046,0.073
		c-0.554,0.061-1.111,0.103-1.694,0.062c-0.172-0.012-0.318,0.156-0.318,0.318c-0.002,0.687,0.03,1.371,0.064,2.056
		c-0.905-3.26-0.639-6.4,0.658-9.546c0.074-0.18-0.17-0.297-0.303-0.197c-0.01-0.036-0.01-0.075-0.048-0.102
		c-0.167-0.118-0.34-0.126-0.535-0.178c-0.271-0.072-0.527-0.184-0.772-0.321c-0.137-0.076-0.248-0.18-0.369-0.273
		C27.445,9.021,27.468,9.003,27.479,8.973z M27.699,10.435c0.02-0.11-0.128-0.196-0.194-0.102c-0.017-0.021-0.025-0.047-0.056-0.06
		c-0.886-0.383-1.739-0.725-2.532-1.288c-0.005-0.004-0.01,0-0.016-0.003c-0.01-0.017-0.028-0.03-0.044-0.042
		c0.57-0.073,1.172-0.112,1.719-0.27l0.001-0.001c0.245,0.384,0.542,0.729,0.924,0.99c0.373,0.254,1.056,0.607,1.518,0.453
		c-1.556,3.139-1.673,6.734-0.45,10.01c-0.366,0.052-0.887,0.144-1.518,0.258c0.012-0.027,0.032-0.049,0.028-0.084
		C26.656,16.856,27.095,13.817,27.699,10.435z M26.67,20.351c0.008,0.041,0.036,0.063,0.062,0.087
		c-0.59,0.107-1.256,0.227-1.979,0.35c-1.305-3.866-1.315-7.62,0.091-11.475c0.724,0.57,1.552,1.105,2.451,1.33
		c0.032,0.008,0.059-0.006,0.088-0.014C26.136,13.624,26.082,17.211,26.67,20.351z M19.844,18.235
		c0.131-1.035,0.317-2.042,0.542-3.047c1.255,1.795,2.043,3.761,2.472,5.903c-0.726,0.108-1.471,0.209-2.219,0.291
		C20.489,20.31,20.242,19.244,19.844,18.235z M20.348,21.414c-0.27,0.028-0.539,0.054-0.807,0.076
		c0.007-0.02,0.023-0.03,0.024-0.055c0.039-0.782,0.1-1.536,0.175-2.277C19.976,19.898,20.188,20.645,20.348,21.414z M20.681,14.845
		c-0.054-0.075-0.13-0.088-0.203-0.081c0.093-0.386,0.21-0.774,0.318-1.162c1.906,1.975,3.016,4.42,3.19,7.167
		c0.004,0.061,0.034,0.102,0.068,0.137c-0.322,0.053-0.651,0.105-0.987,0.156C22.855,18.79,22.02,16.693,20.681,14.845z
		 M23.512,2.363c0.007-0.014,0.003-0.027,0.007-0.041c0.027-0.019,0.055-0.034,0.077-0.064c0.006-0.008,0.005-0.015,0.01-0.023
		c0.859-0.015,1.731-0.016,2.582-0.11c0.049-0.005,0.078-0.035,0.113-0.057c0.938,2.292,1,4.334,0.851,6.772
		c-0.197-0.188-0.371-0.4-0.524-0.635c-0.005-0.008-0.013-0.008-0.019-0.015c0.01-1.88-0.302-3.689-0.954-5.456
		c-0.05-0.136-0.174-0.217-0.321-0.182c-0.776,0.181-1.556,0.31-2.343,0.41C23.196,2.781,23.388,2.589,23.512,2.363z M22.535,3.519
		c0.907-0.081,1.802-0.216,2.691-0.416c0.597,1.672,0.902,3.384,0.894,5.167c0,0.037,0.024,0.055,0.035,0.083
		c-0.505,0.074-1.011,0.206-1.504,0.31c-0.159,0.034-0.125,0.217-0.006,0.271c-0.013,0.012-0.029,0.021-0.038,0.04
		c-0.073,0.155-0.128,0.316-0.194,0.473c-0.076-0.428-0.174-0.85-0.184-1.293C24.216,7.52,24.3,6.897,24.446,6.282
		c0.19-0.116,0.176-0.442-0.096-0.431c-0.439,0.018-0.876,0.024-1.313,0.021c0.025-0.027,0.04-0.063,0.036-0.111
		C23.007,4.986,22.8,4.247,22.535,3.519z M21.231,6.504c0.136-0.114,0.21-0.225,0.217-0.384c0.88,0.205,1.771,0.293,2.672,0.226
		c-0.427,1.147-0.582,2.621,0.046,3.69c0.001,0.002,0.003,0.002,0.004,0.004c-0.171,0.464-0.325,0.933-0.448,1.408
		c-0.294-1.365-0.373-2.706-0.133-4.101c0.027-0.155-0.066-0.329-0.245-0.322c-0.883,0.035-1.755-0.006-2.631-0.102
		C20.841,6.745,21.176,6.551,21.231,6.504z M20.594,9.617c-0.029-0.737-0.025-1.469,0.016-2.204c0.816,0.097,1.63,0.135,2.451,0.118
		c-0.215,1.494-0.141,2.992,0.344,4.433c0.03,0.088,0.096,0.12,0.166,0.13c-0.306,1.446-0.393,2.926-0.242,4.388
		c-0.578-1.168-1.369-2.234-2.375-3.147c-0.024-0.022-0.05-0.023-0.076-0.028c0.238-0.818,0.501-1.64,0.826-2.483
		c0.008-0.021-0.002-0.036-0.003-0.054c0.139-0.025,0.235-0.189,0.116-0.304c-0.327-0.315-0.843-0.426-1.236-0.655
		c-0.029-0.017-0.053-0.037-0.081-0.054C20.552,9.73,20.597,9.687,20.594,9.617z M20.197,10.149c0.313,0.221,0.746,0.51,1.163,0.597
		c-1.736,3.119-2.64,7.132-2.193,10.689c0.004,0.036,0.026,0.056,0.043,0.082c-0.269,0.02-0.537,0.037-0.801,0.05
		c-0.739-3.559,0.653-7.336,2.069-10.56c0.037-0.084,0.001-0.158-0.054-0.203c0.034-0.119-0.009-0.263-0.159-0.317
		c-0.95-0.336-1.747-0.776-2.534-1.387c0,0-0.001-0.001-0.001-0.002c0.443,0.042,0.975,0.127,1.409,0.014
		C19.439,9.506,19.794,9.864,20.197,10.149z M17.864,21.586c-0.41,0.012-0.814,0.016-1.2,0.005c0.044-0.042,0.077-0.096,0.063-0.172
		c-0.73-4.122-0.48-8.025,0.908-11.963c0.687,0.688,1.573,1.233,2.493,1.509C18.433,13.901,16.871,18.175,17.864,21.586z
		 M17.685,3.834c0.072-0.009,0.127-0.042,0.165-0.087c0.723,0.389,1.477,0.797,2.247,1.068c-0.858,1.013-1.608,2.578-1.308,3.891
		C18.514,8.692,18.223,8.72,17.95,8.75c0.155-1.301,0.675-2.436,1.435-3.495c0.102-0.142-0.111-0.279-0.229-0.177
		c-0.021,0.018-0.034,0.041-0.055,0.059c-0.373-0.346-0.915-0.477-1.386-0.653c-0.591-0.22-1.188-0.426-1.784-0.633
		C16.51,3.871,17.113,3.908,17.685,3.834z M13.954,8.836c0.447-1.72,1.13-3.102,2.007-4.627c0.518,0.25,1.036,0.5,1.56,0.738
		c0.408,0.186,0.847,0.434,1.299,0.497c-0.841,0.903-1.306,2.079-1.355,3.326c-0.002,0.05,0.023,0.078,0.042,0.112
		c-0.097-0.005-0.198,0.029-0.244,0.147c-1.528,3.888-1.906,8.107-0.965,12.179c-1.272-4.032-1.977-7.832-2.056-12.102
		c0-0.014-0.01-0.02-0.013-0.032c-0.002-0.01-0.008-0.017-0.011-0.027c-0.013-0.027-0.026-0.05-0.049-0.064
		c-0.016-0.018-0.02-0.043-0.044-0.056C14.068,8.896,14.008,8.87,13.95,8.84C13.951,8.838,13.953,8.838,13.954,8.836z M13.917,9.352
		c-0.351,4.075,0.36,8.5,2.093,12.21c-0.384-0.027-0.756-0.063-1.098-0.122c-1.087-3.886-1.697-7.641-2.044-11.673
		c-0.011-0.128-0.103-0.192-0.2-0.207c-0.009-0.018-0.015-0.038-0.03-0.052c-0.285-0.265-0.683-0.293-1.052-0.39
		c-0.438-0.116-0.876-0.242-1.321-0.332c-0.002-0.002-0.005-0.003-0.007-0.005c0.363-0.183,0.735-0.369,1.057-0.61
		c0.059,0.143,0.232,0.174,0.332,0.075C12.388,8.642,13.135,9.065,13.917,9.352z M10.752,1.15c1.092,0.422,2.212,0.906,3.351,1.151
		c-0.916,1.778-1.514,3.934-1.499,5.935c-0.289-0.114-0.58-0.225-0.866-0.336c0.138-1.86,0.603-3.524,1.433-5.209
		c0.073-0.149-0.072-0.258-0.193-0.21c-0.024-0.02-0.036-0.047-0.074-0.058c-0.987-0.309-2.101-0.557-3.146-0.662
		C10.117,1.633,10.489,1.348,10.752,1.15z M9.848,8.809C9.842,8.824,9.828,8.831,9.825,8.85C9.772,9.149,9.746,9.448,9.712,9.747
		c-1.017-2.51-0.97-5.112-0.241-7.718c0.998,0.39,2.152,0.665,3.215,0.83c-0.949,1.454-1.431,3.173-1.404,4.91
		c-0.494,0.176-0.937,0.525-1.379,0.802C9.806,8.632,9.803,8.735,9.848,8.809z M10.281,9.201c0.387,0.142,0.783,0.262,1.176,0.387
		c0.321,0.101,0.628,0.245,0.957,0.235c-0.118,3.844,0.679,7.947,2.078,11.536c-1.307-0.296-2.2-0.885-2.335-1.918
		c-0.019-0.149-0.149-0.216-0.264-0.206c-0.04-0.068-0.101-0.121-0.2-0.129c-0.001-0.035,0.011-0.067-0.006-0.104
		C10.283,15.849,9.902,12.598,10.281,9.201z M32.005,42.757c-5.497,1.578-10.798,1.767-16.439,1.032
		c-0.001-0.011,0.007-0.017,0.004-0.029c-2.133-7.983-4.56-15.905-6.811-23.857c0.977-0.172,1.931-0.254,2.923-0.259
		c0.019,0,0.025-0.015,0.042-0.018c0.106,2.032,0.77,3.012,2.931,2.971c4.613-0.087,9.539-1.241,14.115-1.875
		c0.086-0.012,0.146-0.059,0.182-0.122c0.104,0.029,0.23-0.019,0.243-0.165c0.074-0.835,0.121-1.667,0.149-2.503
		c1.076,0.062,2.304,0.039,3.285-0.383C32.204,25.937,31.916,34.358,32.005,42.757z M36.718,38.632
		c-0.792,0.418-1.446,1.237-2.09,1.849c-0.688,0.654-1.373,1.319-2.023,2.012c0.2-8.464,0.345-16.923,0.674-25.385
		c0-0.01-0.004-0.017-0.004-0.027c0.013-0.008,0.027-0.003,0.04-0.014c1.948-1.686,3.914-3.233,6.118-4.552
		C38.537,21.223,37.68,29.93,36.718,38.632z M39.552,11.738c-0.207,0.11-0.408,0.236-0.613,0.352
		c0.099-2.657,1.16-4.772,2.706-6.916c0.062-0.086,0.014-0.164-0.06-0.201c0.029-0.095,0.018-0.205-0.092-0.279
		c-0.83-0.562-1.687-1.077-2.512-1.647c0.457,0.079,0.912,0.055,1.369-0.073c0.004,0.03-0.003,0.058,0.018,0.089
		c0.338,0.506,0.766,0.948,1.236,1.332c0.287,0.235,0.622,0.549,0.983,0.714C41.131,6.966,39.972,9.399,39.552,11.738z"/>
</g>
</svg>